# xmcd
#
# Track frame offsets: 
#        150
#        20175
#        43220
#        60522
#        79419
#
# Disc length: 1301 seconds
#
# Revision: 0
# Processed by: cddbd v1.5.2PL0 Copyright (c) Steve Scherf et al.
# Submitted via: ExactAudioCopyFreeDBPlugin 1.0
#
DISCID=41051305
DTITLE=Thomas Wallnig - Lieder über Jahre
DYEAR=2007
DGENRE=Songwriter
TTITLE0=Regen
TTITLE1=Ikarus
TTITLE2=Nacht im Zug
TTITLE3=Meine Liebe zu mir
TTITLE4=Dreikirchen
EXTD=
EXTT0=
EXTT1=
EXTT2=
EXTT3=
EXTT4=
PLAYORDER=
